<svg xmlns="http://www.w3.org/2000/svg" viewBox="0 0 256 256"><g transform="translate(12.8 12.8) scale(.9)"><g fill="#FFFFFF" stroke="#FFFFFF" stroke-width="22" stroke-linejoin="round" stroke-linecap="round"><path d="M30 150c8-50 46-86 98-86s90 36 98 86c-30-12-62-18-98-18s-68 6-98 18z"></path><path d="M24 158c30-16 66-24 104-24s74 8 104 24c4 2 4 8 0 10-30 16-66 24-104 24s-74-8-104-24c-4-2-4-8 0-10z"></path><path d="M30 156c30-14 64-20 98-20s68 6 98 20"></path><g transform="translate(128 108)"><ellipse cx="0" cy="6" rx="14" ry="11"></ellipse><ellipse cx="-14" cy="-10" rx="6" ry="8"></ellipse><ellipse cx="-4" cy="-16" rx="6" ry="8"></ellipse><ellipse cx="7" cy="-16" rx="6" ry="8"></ellipse><ellipse cx="17" cy="-10" rx="6" ry="8"></ellipse></g></g><path fill="#0B1E19" d="M30 150c8-50 46-86 98-86s90 36 98 86c-30-12-62-18-98-18s-68 6-98 18z"></path><path fill="#0B1E19" d="M24 158c30-16 66-24 104-24s74 8 104 24c4 2 4 8 0 10-30 16-66 24-104 24s-74-8-104-24c-4-2-4-8 0-10z"></path><path fill="#FBEABC" d="M30 156c30-14 64-20 98-20s68 6 98 20" fill-opacity="0" stroke="#FBEABC" stroke-width="6"></path><g fill="#FBF8F4" transform="translate(128 108)"><ellipse cx="0" cy="6" rx="14" ry="11"></ellipse><ellipse cx="-14" cy="-10" rx="6" ry="8"></ellipse><ellipse cx="-4" cy="-16" rx="6" ry="8"></ellipse><ellipse cx="7" cy="-16" rx="6" ry="8"></ellipse><ellipse cx="17" cy="-10" rx="6" ry="8"></ellipse></g></g></svg>